# xmcd
# 
# Track frame offsets:
#     150
#     12767
#     31774
#     44536
#     60455
#     74316
#     88373
#     101663
#     121238
#     136041
#     157116
#     175686
# 
# Disc length: 2457
# 
# Revision: 4
# Processed by: cddbd v1.5.2PL0 Copyright (c) Steve Scherf et al.
# Submitted via: fre:ac v1.0.17
# 
DISCID=9809970c
DTITLE=Statler Brothers - Showtime
DYEAR=2001
DGENRE=Country
TTITLE0=She Never Altogether Leaves
TTITLE1=It's Too Late For Roses
TTITLE2=You Just Haven't Done It Yet
TTITLE3=In Love With You
TTITLE4=Too Long Ago
TTITLE5=All I'll Need From You
TTITLE6=Darlin' I Do
TTITLE7=I've Had A Good Time
TTITLE8=It Should Have Been Me
TTITLE9=Look At Me
TTITLE10=The Other Side Of The Cross
TTITLE11=I've Got Jesus On My Side
EXTD=
EXTT0=
EXTT1=
EXTT2=
EXTT3=
EXTT4=
EXTT5=
EXTT6=
EXTT7=
EXTT8=
EXTT9=
EXTT10=
EXTT11=
PLAYORDER=
